<?xml version='1.0' encoding='cp1252'?>
<score-partwise version="3.1" xmlns="http://www.musicxml.org/ns/3.1"><work><work-title>Fractured Motion – Orbit Version (Trio, Density)</work-title><creator type="composer">Mike Bryant</creator></work><identification><encoding><encoding-date>2026-02-23</encoding-date><software>Fractured Motion Orbit Trio Density V1 / GCE-Jazz V1.0</software></encoding></identification><defaults><scaling><millimeters>7.0</millimeters><tenths>40</tenths></scaling></defaults><part-list><score-part id="P1"><part-name>Flugelhorn in Bb</part-name></score-part><score-part id="P2"><part-name>Guitar</part-name></score-part><score-part id="P3"><part-name>Upright Bass</part-name></score-part></part-list><part id="P1"><measure number="1"><attributes><divisions>4</divisions><key><fifths>-3</fifths><mode>minor</mode></key><time><beats>4</beats><beat-type>4</beat-type></time><clef><sign>G</sign><line>2</line></clef><transpose><diatonic>-2</diatonic><chromatic>-2</chromatic></transpose></attributes><direction placement="above"><direction-type><metronome><beat-unit>quarter</beat-unit><per-minute>72</per-minute></metronome></direction-type></direction><sound tempo="72" /><direction placement="above"><direction-type><words>Bm(add9)</words></direction-type></direction><note><pitch><step>B</step><octave>4</octave></pitch><duration>8</duration><voice>1</voice><type>half</type><stem>up</stem><dynamics><pp /></dynamics></note><note><pitch><step>A</step><octave>4</octave></pitch><duration>4</duration><voice>1</voice><type>quarter</type><stem>up</stem><dynamics><pp /></dynamics></note><note><pitch><step>C</step><alter>1</alter><octave>5</octave></pitch><duration>4</duration><voice>1</voice><type>quarter</type><stem>up</stem><accidental>sharp</accidental><dynamics><pp /></dynamics></note></measure><measure number="2"><direction placement="above"><direction-type><words>Bm(add9)/C</words></direction-type></direction><note><pitch><step>B</step><octave>4</octave></pitch><duration>8</duration><voice>1</voice><type>half</type><stem>up</stem><dynamics><pp /></dynamics></note><note><pitch><step>A</step><octave>4</octave></pitch><duration>8</duration><voice>1</voice><type>half</type><stem>up</stem><dynamics><pp /></dynamics></note></measure><measure number="3"><direction placement="above"><direction-type><words>Bm(add9)</words></direction-type></direction><note><pitch><step>F</step><alter>1</alter><octave>4</octave></pitch><duration>16</duration><voice>1</voice><type>whole</type><stem>up</stem><accidental>sharp</accidental><dynamics><pp /></dynamics></note></measure><measure number="4"><direction placement="above"><direction-type><words>Bm(add9)/A</words></direction-type></direction><note><pitch><step>A</step><octave>4</octave></pitch><duration>8</duration><voice>1</voice><type>half</type><stem>up</stem><dynamics><pp /></dynamics></note><note><pitch><step>B</step><octave>4</octave></pitch><duration>4</duration><voice>1</voice><type>quarter</type><stem>up</stem><dynamics><pp /></dynamics></note><note><pitch><step>C</step><alter>1</alter><octave>5</octave></pitch><duration>4</duration><voice>1</voice><type>quarter</type><stem>up</stem><accidental>sharp</accidental><dynamics><pp /></dynamics></note></measure><measure number="5"><direction placement="above"><direction-type><words>Bm(add9)</words></direction-type></direction><note><pitch><step>B</step><octave>4</octave></pitch><duration>16</duration><voice>1</voice><type>whole</type><stem>up</stem><dynamics><pp /></dynamics></note></measure><measure number="6"><direction placement="above"><direction-type><words>Bm(add9)/C</words></direction-type></direction><note><pitch><step>A</step><octave>4</octave></pitch><duration>8</duration><voice>1</voice><type>half</type><stem>up</stem><dynamics><pp /></dynamics></note><note><pitch><step>G</step><octave>4</octave></pitch><duration>8</duration><voice>1</voice><type>half</type><stem>up</stem><dynamics><pp /></dynamics></note></measure><measure number="7"><direction placement="above"><direction-type><words>Bm(add9)</words></direction-type></direction><note><pitch><step>F</step><alter>1</alter><octave>4</octave></pitch><duration>4</duration><voice>1</voice><type>quarter</type><stem>up</stem><accidental>sharp</accidental><dynamics><pp /></dynamics></note><note><pitch><step>E</step><octave>4</octave></pitch><duration>4</duration><voice>1</voice><type>quarter</type><stem>up</stem><dynamics><pp /></dynamics></note><note><pitch><step>D</step><octave>4</octave></pitch><duration>8</duration><voice>1</voice><type>half</type><stem>up</stem><dynamics><pp /></dynamics></note></measure><measure number="8"><direction placement="above"><direction-type><words>Bm(add9)/F#</words></direction-type></direction><note><pitch><step>E</step><octave>4</octave></pitch><duration>8</duration><voice>1</voice><type>half</type><stem>up</stem><dynamics><pp /></dynamics></note><note><pitch><step>F</step><alter>1</alter><octave>4</octave></pitch><duration>8</duration><voice>1</voice><type>half</type><stem>up</stem><accidental>sharp</accidental><dynamics><pp /></dynamics></note></measure><measure number="9"><direction placement="above"><direction-type><words>Bm(add9)</words></direction-type></direction><note><pitch><step>A</step><octave>4</octave></pitch><duration>16</duration><voice>1</voice><type>whole</type><stem>up</stem><dynamics><pp /></dynamics></note></measure><measure number="10"><direction placement="above"><direction-type><words>Bm(add9)/C</words></direction-type></direction><note><pitch><step>B</step><octave>4</octave></pitch><duration>8</duration><voice>1</voice><type>half</type><stem>up</stem><dynamics><pp /></dynamics></note><note><pitch><step>C</step><alter>1</alter><octave>5</octave></pitch><duration>8</duration><voice>1</voice><type>half</type><stem>up</stem><accidental>sharp</accidental><dynamics><pp /></dynamics></note></measure><measure number="11"><direction placement="above"><direction-type><words>Bm(add9)</words></direction-type></direction><note><pitch><step>B</step><octave>4</octave></pitch><duration>16</duration><voice>1</voice><type>whole</type><stem>up</stem><dynamics><pp /></dynamics></note></measure><measure number="12"><direction placement="above"><direction-type><words>Bm(add9)/A</words></direction-type></direction><note><pitch><step>A</step><octave>4</octave></pitch><duration>8</duration><voice>1</voice><type>half</type><stem>up</stem><dynamics><pp /></dynamics></note><note><pitch><step>F</step><alter>1</alter><octave>4</octave></pitch><duration>8</duration><voice>1</voice><type>half</type><stem>up</stem><accidental>sharp</accidental><dynamics><pp /></dynamics></note></measure><measure number="13"><direction placement="above"><direction-type><words>Bm(add9)</words></direction-type></direction><note><pitch><step>E</step><octave>4</octave></pitch><duration>16</duration><voice>1</voice><type>whole</type><stem>up</stem><dynamics><pp /></dynamics></note></measure><measure number="14"><direction placement="above"><direction-type><words>Bm(add9)/C</words></direction-type></direction><note><pitch><step>F</step><alter>1</alter><octave>4</octave></pitch><duration>4</duration><voice>1</voice><type>quarter</type><stem>up</stem><accidental>sharp</accidental><dynamics><pp /></dynamics></note><note><pitch><step>G</step><octave>4</octave></pitch><duration>4</duration><voice>1</voice><type>quarter</type><stem>up</stem><dynamics><pp /></dynamics></note><note><pitch><step>A</step><octave>4</octave></pitch><duration>8</duration><voice>1</voice><type>half</type><stem>up</stem><dynamics><pp /></dynamics></note></measure><measure number="15"><direction placement="above"><direction-type><words>Bm(add9)</words></direction-type></direction><note><pitch><step>B</step><octave>4</octave></pitch><duration>16</duration><voice>1</voice><type>whole</type><stem>up</stem><dynamics><pp /></dynamics></note></measure><measure number="16"><direction placement="above"><direction-type><words>Bm(add9)/F#</words></direction-type></direction><note><pitch><step>A</step><octave>4</octave></pitch><duration>8</duration><voice>1</voice><type>half</type><stem>up</stem><dynamics><pp /></dynamics></note><note><pitch><step>B</step><octave>4</octave></pitch><duration>4</duration><voice>1</voice><type>quarter</type><stem>up</stem><dynamics><pp /></dynamics></note><note><pitch><step>F</step><alter>1</alter><octave>4</octave></pitch><duration>4</duration><voice>1</voice><type>quarter</type><stem>up</stem><accidental>sharp</accidental><dynamics><pp /></dynamics></note></measure><measure number="17"><direction placement="above"><direction-type><words>D(add4)</words></direction-type></direction><note><pitch><step>D</step><octave>5</octave></pitch><duration>8</duration><voice>1</voice><type>half</type><stem>up</stem><dynamics><pp /></dynamics></note><note><pitch><step>F</step><alter>1</alter><octave>5</octave></pitch><duration>8</duration><voice>1</voice><type>half</type><stem>up</stem><accidental>sharp</accidental><dynamics><pp /></dynamics></note></measure><measure number="18"><direction placement="above"><direction-type><words>D6</words></direction-type></direction><note><pitch><step>A</step><octave>5</octave></pitch><duration>16</duration><voice>1</voice><type>whole</type><stem>up</stem><dynamics><pp /></dynamics></note></measure><measure number="19"><direction placement="above"><direction-type><words>D(add4)</words></direction-type></direction><note><pitch><step>G</step><octave>5</octave></pitch><duration>8</duration><voice>1</voice><type>half</type><stem>up</stem><dynamics><pp /></dynamics></note><note><pitch><step>A</step><octave>5</octave></pitch><duration>8</duration><voice>1</voice><type>half</type><stem>up</stem><dynamics><pp /></dynamics></note></measure><measure number="20"><direction placement="above"><direction-type><words>Bbmaj(#11)</words></direction-type></direction><note><pitch><step>F</step><alter>1</alter><octave>5</octave></pitch><duration>16</duration><voice>1</voice><type>whole</type><stem>up</stem><accidental>sharp</accidental><dynamics><pp /></dynamics></note></measure><measure number="21"><direction placement="above"><direction-type><words>D(add4)</words></direction-type></direction><note><pitch><step>A</step><octave>5</octave></pitch><duration>8</duration><voice>1</voice><type>half</type><stem>up</stem><dynamics><pp /></dynamics></note><note><pitch><step>B</step><octave>5</octave></pitch><duration>4</duration><voice>1</voice><type>quarter</type><stem>up</stem><dynamics><pp /></dynamics></note><note><pitch><step>C</step><octave>5</octave></pitch><duration>4</duration><voice>1</voice><type>quarter</type><stem>up</stem><dynamics><pp /></dynamics></note></measure><measure number="22"><direction placement="above"><direction-type><words>D(add4)/C</words></direction-type></direction><note><pitch><step>C</step><octave>5</octave></pitch><duration>16</duration><voice>1</voice><type>whole</type><stem>up</stem><dynamics><pp /></dynamics></note></measure><measure number="23"><direction placement="above"><direction-type><words>D(add4)</words></direction-type></direction><note><pitch><step>A</step><octave>4</octave></pitch><duration>8</duration><voice>1</voice><type>half</type><stem>up</stem><dynamics><pp /></dynamics></note><note><pitch><step>F</step><octave>4</octave></pitch><duration>8</duration><voice>1</voice><type>half</type><stem>up</stem><dynamics><pp /></dynamics></note></measure><measure number="24"><direction placement="above"><direction-type><words>Fmaj7(add4)</words></direction-type></direction><note><pitch><step>F</step><octave>4</octave></pitch><duration>16</duration><voice>1</voice><type>whole</type><stem>up</stem><dynamics><pp /></dynamics></note></measure><measure number="25"><direction placement="above"><direction-type><words>F(add4)</words></direction-type></direction><note><pitch><step>A</step><octave>4</octave></pitch><duration>8</duration><voice>1</voice><type>half</type><stem>up</stem><dynamics><pp /></dynamics></note><note><pitch><step>B</step><octave>4</octave></pitch><duration>8</duration><voice>1</voice><type>half</type><stem>up</stem><dynamics><pp /></dynamics></note></measure><measure number="26"><direction placement="above"><direction-type><words>Fmaj7(add4)</words></direction-type></direction><note><pitch><step>C</step><octave>5</octave></pitch><duration>16</duration><voice>1</voice><type>whole</type><stem>up</stem><dynamics><pp /></dynamics></note></measure><measure number="27"><direction placement="above"><direction-type><words>F(add4)/A</words></direction-type></direction><note><pitch><step>B</step><octave>4</octave></pitch><duration>8</duration><voice>1</voice><type>half</type><stem>up</stem><dynamics><pp /></dynamics></note><note><pitch><step>A</step><octave>4</octave></pitch><duration>8</duration><voice>1</voice><type>half</type><stem>up</stem><dynamics><pp /></dynamics></note></measure><measure number="28"><direction placement="above"><direction-type><words>Fmaj7(add4)</words></direction-type></direction><note><pitch><step>G</step><octave>4</octave></pitch><duration>16</duration><voice>1</voice><type>whole</type><stem>up</stem><dynamics><pp /></dynamics></note></measure><measure number="29"><direction placement="above"><direction-type><words>F(add4)</words></direction-type></direction><note><pitch><step>A</step><octave>4</octave></pitch><duration>8</duration><voice>1</voice><type>half</type><stem>up</stem><dynamics><pp /></dynamics></note><note><pitch><step>C</step><octave>5</octave></pitch><duration>8</duration><voice>1</voice><type>half</type><stem>up</stem><dynamics><pp /></dynamics></note></measure><measure number="30"><direction placement="above"><direction-type><words>Fmaj7(add4)/C</words></direction-type></direction><note><pitch><step>B</step><octave>4</octave></pitch><duration>16</duration><voice>1</voice><type>whole</type><stem>up</stem><dynamics><pp /></dynamics></note></measure><measure number="31"><direction placement="above"><direction-type><words>F(add4)</words></direction-type></direction><note><pitch><step>C</step><octave>5</octave></pitch><duration>8</duration><voice>1</voice><type>half</type><stem>up</stem><dynamics><pp /></dynamics></note><note><pitch><step>D</step><octave>5</octave></pitch><duration>8</duration><voice>1</voice><type>half</type><stem>up</stem><dynamics><pp /></dynamics></note></measure><measure number="32"><direction placement="above"><direction-type><words>Fmaj7(add4)</words></direction-type></direction><note><pitch><step>E</step><octave>5</octave></pitch><duration>16</duration><voice>1</voice><type>whole</type><stem>up</stem><dynamics><pp /></dynamics></note></measure><measure number="33"><direction placement="above"><direction-type><words>Cmaj7(#11)</words></direction-type></direction><note><pitch><step>G</step><octave>5</octave></pitch><duration>8</duration><voice>1</voice><type>half</type><stem>up</stem><dynamics><pp /></dynamics></note><note><pitch><step>E</step><octave>5</octave></pitch><duration>8</duration><voice>1</voice><type>half</type><stem>up</stem><dynamics><pp /></dynamics></note></measure><measure number="34"><direction placement="above"><direction-type><words>C(add4)</words></direction-type></direction><note><pitch><step>E</step><octave>5</octave></pitch><duration>8</duration><voice>1</voice><type>half</type><stem>up</stem><dynamics><pp /></dynamics></note><note><pitch><step>E</step><octave>6</octave></pitch><duration>8</duration><voice>1</voice><type>half</type><stem>up</stem><dynamics><pp /></dynamics></note></measure><measure number="35"><direction placement="above"><direction-type><words>Cmaj7(#11)</words></direction-type></direction><note><pitch><step>G</step><octave>5</octave></pitch><duration>4</duration><voice>1</voice><type>quarter</type><stem>up</stem><dynamics><pp /></dynamics></note><note><pitch><step>A</step><octave>5</octave></pitch><duration>4</duration><voice>1</voice><type>quarter</type><stem>up</stem><dynamics><pp /></dynamics></note><note><pitch><step>B</step><octave>5</octave></pitch><duration>8</duration><voice>1</voice><type>half</type><stem>up</stem><dynamics><pp /></dynamics></note></measure><measure number="36"><direction placement="above"><direction-type><words>C(add4)/G</words></direction-type></direction><note><rest /><duration>4</duration><voice>1</voice><type>quarter</type></note><note><pitch><step>B</step><octave>5</octave></pitch><duration>12</duration><voice>1</voice><type>half</type><stem>up</stem><dot /><dynamics><pp /></dynamics></note></measure><measure number="37"><direction placement="above"><direction-type><words>Cmaj7(#11)</words></direction-type></direction><note><pitch><step>A</step><octave>5</octave></pitch><duration>8</duration><voice>1</voice><type>half</type><stem>up</stem><dynamics><pp /></dynamics></note><note><pitch><step>G</step><octave>5</octave></pitch><duration>8</duration><voice>1</voice><type>half</type><stem>up</stem><dynamics><pp /></dynamics></note></measure><measure number="38"><direction placement="above"><direction-type><words>C(add4)</words></direction-type></direction><note><pitch><step>E</step><octave>5</octave></pitch><duration>16</duration><voice>1</voice><type>whole</type><stem>up</stem><dynamics><pp /></dynamics></note></measure><measure number="39"><direction placement="above"><direction-type><words>Cmaj7(#11)</words></direction-type></direction><note><pitch><step>F</step><alter>1</alter><octave>5</octave></pitch><duration>8</duration><voice>1</voice><type>half</type><stem>up</stem><accidental>sharp</accidental><dynamics><pp /></dynamics></note><note><pitch><step>G</step><octave>5</octave></pitch><duration>8</duration><voice>1</voice><type>half</type><stem>up</stem><dynamics><pp /></dynamics></note></measure><measure number="40"><direction placement="above"><direction-type><words>C(add4)/E</words></direction-type></direction><note><pitch><step>G</step><octave>5</octave></pitch><duration>16</duration><voice>1</voice><type>whole</type><stem>up</stem><dynamics><pp /></dynamics></note></measure><measure number="41"><direction placement="above"><direction-type><words>Cmaj7(#11)</words></direction-type></direction><note><pitch><step>E</step><octave>5</octave></pitch><duration>8</duration><voice>1</voice><type>half</type><stem>up</stem><dynamics><pp /></dynamics></note><note><pitch><step>D</step><octave>5</octave></pitch><duration>8</duration><voice>1</voice><type>half</type><stem>up</stem><dynamics><pp /></dynamics></note></measure><measure number="42"><direction placement="above"><direction-type><words>C(add4)</words></direction-type></direction><note><pitch><step>C</step><octave>5</octave></pitch><duration>16</duration><voice>1</voice><type>whole</type><stem>up</stem><dynamics><pp /></dynamics></note></measure><measure number="43"><direction placement="above"><direction-type><words>Cmaj7(#11)</words></direction-type></direction><note><pitch><step>D</step><octave>5</octave></pitch><duration>8</duration><voice>1</voice><type>half</type><stem>up</stem><dynamics><pp /></dynamics></note><note><pitch><step>E</step><octave>5</octave></pitch><duration>4</duration><voice>1</voice><type>quarter</type><stem>up</stem><dynamics><pp /></dynamics></note><note><pitch><step>C</step><octave>5</octave></pitch><duration>4</duration><voice>1</voice><type>quarter</type><stem>up</stem><dynamics><pp /></dynamics></note></measure><measure number="44"><direction placement="above"><direction-type><words>C(add4)</words></direction-type></direction><note><pitch><step>B</step><octave>4</octave></pitch><duration>16</duration><voice>1</voice><type>whole</type><stem>up</stem><dynamics><pp /></dynamics></note></measure><measure number="45"><direction placement="above"><direction-type><words>Eb(add9)</words></direction-type></direction><note><pitch><step>G</step><octave>5</octave></pitch><duration>4</duration><voice>1</voice><type>quarter</type><stem>up</stem><dynamics><pp /></dynamics></note><note><pitch><step>G</step><alter>1</alter><octave>5</octave></pitch><duration>4</duration><voice>1</voice><type>quarter</type><stem>up</stem><accidental>sharp</accidental><dynamics><pp /></dynamics></note><note><pitch><step>B</step><alter>-1</alter><octave>4</octave></pitch><duration>8</duration><voice>1</voice><type>half</type><stem>up</stem><accidental>flat</accidental><dynamics><pp /></dynamics></note></measure><measure number="46"><direction placement="above"><direction-type><words>Eb(add4)</words></direction-type></direction><note><pitch><step>F</step><octave>4</octave></pitch><duration>8</duration><voice>1</voice><type>half</type><stem>up</stem><dynamics><pp /></dynamics></note><note><pitch><step>E</step><alter>-1</alter><octave>4</octave></pitch><duration>8</duration><voice>1</voice><type>half</type><stem>up</stem><accidental>flat</accidental><dynamics><pp /></dynamics></note></measure><measure number="47"><direction placement="above"><direction-type><words>Bm(add9)</words></direction-type></direction><note><pitch><step>B</step><octave>4</octave></pitch><duration>16</duration><voice>1</voice><type>whole</type><stem>up</stem><dynamics><pp /></dynamics></note></measure><measure number="48"><direction placement="above"><direction-type><words>Bm(add9)/C</words></direction-type></direction><note><pitch><step>A</step><octave>4</octave></pitch><duration>8</duration><voice>1</voice><type>half</type><stem>up</stem><dynamics><pp /></dynamics></note><note><pitch><step>F</step><alter>1</alter><octave>4</octave></pitch><duration>8</duration><voice>1</voice><type>half</type><stem>up</stem><accidental>sharp</accidental><dynamics><pp /></dynamics></note></measure><measure number="49"><direction placement="above"><direction-type><words>Bm(add9)</words></direction-type></direction><note><pitch><step>E</step><octave>4</octave></pitch><duration>16</duration><voice>1</voice><type>whole</type><stem>up</stem><dynamics><pp /></dynamics></note></measure><measure number="50"><direction placement="above"><direction-type><words>Bm(add9)/A</words></direction-type></direction><note><pitch><step>A</step><octave>4</octave></pitch><duration>8</duration><voice>1</voice><type>half</type><stem>up</stem><dynamics><pp /></dynamics></note><note><pitch><step>B</step><octave>4</octave></pitch><duration>8</duration><voice>1</voice><type>half</type><stem>up</stem><dynamics><pp /></dynamics></note></measure><measure number="51"><direction placement="above"><direction-type><words>Bm(add9)</words></direction-type></direction><note><pitch><step>C</step><alter>1</alter><octave>5</octave></pitch><duration>16</duration><voice>1</voice><type>whole</type><stem>up</stem><accidental>sharp</accidental><dynamics><pp /></dynamics></note></measure><measure number="52"><direction placement="above"><direction-type><words>Bm(add9)/F#</words></direction-type></direction><note><pitch><step>B</step><octave>4</octave></pitch><duration>8</duration><voice>1</voice><type>half</type><stem>up</stem><dynamics><pp /></dynamics></note><note><pitch><step>A</step><octave>4</octave></pitch><duration>8</duration><voice>1</voice><type>half</type><stem>up</stem><dynamics><pp /></dynamics></note></measure><measure number="53"><direction placement="above"><direction-type><words>Bm(add9)</words></direction-type></direction><note><pitch><step>F</step><alter>1</alter><octave>4</octave></pitch><duration>16</duration><voice>1</voice><type>whole</type><stem>up</stem><accidental>sharp</accidental><dynamics><pp /></dynamics></note></measure><measure number="54"><direction placement="above"><direction-type><words>Bm(add9)/C</words></direction-type></direction><note><pitch><step>A</step><octave>4</octave></pitch><duration>8</duration><voice>1</voice><type>half</type><stem>up</stem><dynamics><pp /></dynamics></note><note><pitch><step>G</step><octave>4</octave></pitch><duration>8</duration><voice>1</voice><type>half</type><stem>up</stem><dynamics><pp /></dynamics></note></measure><measure number="55"><direction placement="above"><direction-type><words>Bm(add9)</words></direction-type></direction><note><pitch><step>E</step><octave>4</octave></pitch><duration>16</duration><voice>1</voice><type>whole</type><stem>up</stem><dynamics><pp /></dynamics></note></measure><measure number="56"><direction placement="above"><direction-type><words>Bm(add9)/A</words></direction-type></direction><note><pitch><step>F</step><alter>1</alter><octave>4</octave></pitch><duration>4</duration><voice>1</voice><type>quarter</type><stem>up</stem><accidental>sharp</accidental><dynamics><pp /></dynamics></note><note><pitch><step>A</step><octave>4</octave></pitch><duration>4</duration><voice>1</voice><type>quarter</type><stem>up</stem><dynamics><pp /></dynamics></note><note><pitch><step>B</step><octave>4</octave></pitch><duration>8</duration><voice>1</voice><type>half</type><stem>up</stem><dynamics><pp /></dynamics></note></measure><measure number="57"><direction placement="above"><direction-type><words>Bm(add9)</words></direction-type></direction><note><pitch><step>B</step><octave>4</octave></pitch><duration>16</duration><voice>1</voice><type>whole</type><stem>up</stem><dynamics><pp /></dynamics></note></measure><measure number="58"><direction placement="above"><direction-type><words>Bm(add9)/C</words></direction-type></direction><note><pitch><step>A</step><octave>4</octave></pitch><duration>8</duration><voice>1</voice><type>half</type><stem>up</stem><dynamics><pp /></dynamics></note><note><pitch><step>F</step><alter>1</alter><octave>4</octave></pitch><duration>4</duration><voice>1</voice><type>quarter</type><stem>up</stem><accidental>sharp</accidental><dynamics><pp /></dynamics></note><note><pitch><step>E</step><octave>4</octave></pitch><duration>4</duration><voice>1</voice><type>quarter</type><stem>up</stem><dynamics><pp /></dynamics></note></measure><measure number="59"><direction placement="above"><direction-type><words>Bm(add9)</words></direction-type></direction><note><pitch><step>D</step><octave>4</octave></pitch><duration>16</duration><voice>1</voice><type>whole</type><stem>up</stem><dynamics><pp /></dynamics></note></measure><measure number="60"><direction placement="above"><direction-type><words>Bm(add9)/F#</words></direction-type></direction><note><pitch><step>E</step><octave>4</octave></pitch><duration>8</duration><voice>1</voice><type>half</type><stem>up</stem><dynamics><pp /></dynamics></note><note><pitch><step>F</step><alter>1</alter><octave>4</octave></pitch><duration>8</duration><voice>1</voice><type>half</type><stem>up</stem><accidental>sharp</accidental><dynamics><pp /></dynamics></note></measure><measure number="61"><direction placement="above"><direction-type><words>Bm(add9)</words></direction-type></direction><note><pitch><step>A</step><octave>4</octave></pitch><duration>8</duration><voice>1</voice><type>half</type><stem>up</stem><dynamics><pp /></dynamics></note><note><pitch><step>F</step><alter>1</alter><octave>4</octave></pitch><duration>4</duration><voice>1</voice><type>quarter</type><stem>up</stem><accidental>sharp</accidental><dynamics><pp /></dynamics></note><note><pitch><step>E</step><octave>4</octave></pitch><duration>4</duration><voice>1</voice><type>quarter</type><stem>up</stem><dynamics><pp /></dynamics></note></measure><measure number="62"><direction placement="above"><direction-type><words>Bm(add9)/C</words></direction-type></direction><note><pitch><step>B</step><octave>4</octave></pitch><duration>4</duration><voice>1</voice><type>quarter</type><stem>up</stem><dynamics><ppp /></dynamics></note><note><pitch><step>A</step><octave>4</octave></pitch><duration>4</duration><voice>1</voice><type>quarter</type><stem>up</stem><dynamics><ppp /></dynamics></note><note><pitch><step>C</step><alter>1</alter><octave>5</octave></pitch><duration>4</duration><voice>1</voice><type>quarter</type><stem>up</stem><accidental>sharp</accidental><dynamics><ppp /></dynamics></note><note><pitch><step>B</step><octave>4</octave></pitch><duration>4</duration><voice>1</voice><type>quarter</type><stem>up</stem><dynamics><ppp /></dynamics></note></measure><measure number="63"><direction placement="above"><direction-type><words>Bm(add9)</words></direction-type></direction><note><pitch><step>B</step><octave>4</octave></pitch><duration>8</duration><voice>1</voice><type>half</type><stem>up</stem><dynamics><ppp /></dynamics></note><note><pitch><step>F</step><alter>1</alter><octave>4</octave></pitch><duration>8</duration><voice>1</voice><type>half</type><stem>up</stem><accidental>sharp</accidental><dynamics><ppp /></dynamics></note></measure><measure number="64"><direction placement="above"><direction-type><words>Bm(add9)</words></direction-type></direction><direction placement="below"><direction-type><wedge type="diminuendo" /></direction-type></direction><note><pitch><step>A</step><octave>4</octave></pitch><duration>16</duration><voice>1</voice><type>whole</type><stem>up</stem><dynamics><ppp /></dynamics></note></measure></part><part id="P2"><measure number="1"><attributes><divisions>4</divisions><key><fifths>-3</fifths><mode>minor</mode></key><time><beats>4</beats><beat-type>4</beat-type></time><clef><sign>G</sign><line>2</line></clef></attributes><note><rest /><duration>16</duration><voice>1</voice><type>whole</type></note></measure><measure number="2"><note><rest /><duration>16</duration><voice>1</voice><type>whole</type></note></measure><measure number="3"><note><rest /><duration>16</duration><voice>1</voice><type>whole</type></note></measure><measure number="4"><note><rest /><duration>16</duration><voice>1</voice><type>whole</type></note></measure><measure number="5"><note><rest /><duration>16</duration><voice>1</voice><type>whole</type></note></measure><measure number="6"><note><rest /><duration>16</duration><voice>1</voice><type>whole</type></note></measure><measure number="7"><note><rest /><duration>16</duration><voice>1</voice><type>whole</type></note></measure><measure number="8"><note><rest /><duration>16</duration><voice>1</voice><type>whole</type></note></measure><measure number="9"><note><pitch><step>B</step><octave>3</octave></pitch><duration>16</duration><voice>1</voice><type>whole</type><stem>up</stem><dynamics><pp /></dynamics></note></measure><measure number="10"><note><rest /><duration>16</duration><voice>1</voice><type>whole</type></note></measure><measure number="11"><note><pitch><step>B</step><octave>3</octave></pitch><duration>16</duration><voice>1</voice><type>whole</type><stem>up</stem><dynamics><pp /></dynamics></note><note><chord /><pitch><step>F</step><alter>1</alter><octave>4</octave></pitch><duration>16</duration><voice>1</voice><type>whole</type><stem>up</stem><accidental>sharp</accidental><dynamics><pp /></dynamics></note></measure><measure number="12"><note><rest /><duration>16</duration><voice>1</voice><type>whole</type></note></measure><measure number="13"><note><pitch><step>B</step><octave>3</octave></pitch><duration>16</duration><voice>1</voice><type>whole</type><stem>up</stem><dynamics><pp /></dynamics></note></measure><measure number="14"><note><rest /><duration>16</duration><voice>1</voice><type>whole</type></note></measure><measure number="15"><note><pitch><step>B</step><octave>3</octave></pitch><duration>16</duration><voice>1</voice><type>whole</type><stem>up</stem><dynamics><pp /></dynamics></note><note><chord /><pitch><step>F</step><alter>1</alter><octave>4</octave></pitch><duration>16</duration><voice>1</voice><type>whole</type><stem>up</stem><accidental>sharp</accidental><dynamics><pp /></dynamics></note></measure><measure number="16"><note><rest /><duration>16</duration><voice>1</voice><type>whole</type></note></measure><measure number="17"><note><pitch><step>D</step><octave>3</octave></pitch><duration>16</duration><voice>1</voice><type>whole</type><stem>up</stem><dynamics><pp /></dynamics></note><note><chord /><pitch><step>F</step><alter>1</alter><octave>4</octave></pitch><duration>16</duration><voice>1</voice><type>whole</type><stem>up</stem><accidental>sharp</accidental><dynamics><pp /></dynamics></note></measure><measure number="18"><note><pitch><step>D</step><octave>3</octave></pitch><duration>16</duration><voice>1</voice><type>whole</type><stem>up</stem><dynamics><pp /></dynamics></note></measure><measure number="19"><note><pitch><step>D</step><octave>3</octave></pitch><duration>16</duration><voice>1</voice><type>whole</type><stem>up</stem><dynamics><pp /></dynamics></note><note><chord /><pitch><step>F</step><alter>1</alter><octave>4</octave></pitch><duration>16</duration><voice>1</voice><type>whole</type><stem>up</stem><accidental>sharp</accidental><dynamics><pp /></dynamics></note></measure><measure number="20"><note><pitch><step>B</step><alter>-1</alter><octave>3</octave></pitch><duration>16</duration><voice>1</voice><type>whole</type><stem>up</stem><accidental>flat</accidental><dynamics><pp /></dynamics></note><note><chord /><pitch><step>F</step><octave>4</octave></pitch><duration>16</duration><voice>1</voice><type>whole</type><stem>up</stem><dynamics><pp /></dynamics></note></measure><measure number="21"><note><pitch><step>D</step><octave>3</octave></pitch><duration>16</duration><voice>1</voice><type>whole</type><stem>up</stem><dynamics><pp /></dynamics></note></measure><measure number="22"><note><pitch><step>D</step><octave>3</octave></pitch><duration>16</duration><voice>1</voice><type>whole</type><stem>up</stem><dynamics><pp /></dynamics></note><note><chord /><pitch><step>F</step><alter>1</alter><octave>4</octave></pitch><duration>16</duration><voice>1</voice><type>whole</type><stem>up</stem><accidental>sharp</accidental><dynamics><pp /></dynamics></note></measure><measure number="23"><note><pitch><step>D</step><octave>3</octave></pitch><duration>16</duration><voice>1</voice><type>whole</type><stem>up</stem><dynamics><pp /></dynamics></note><note><chord /><pitch><step>F</step><alter>1</alter><octave>4</octave></pitch><duration>16</duration><voice>1</voice><type>whole</type><stem>up</stem><accidental>sharp</accidental><dynamics><pp /></dynamics></note></measure><measure number="24"><note><pitch><step>F</step><octave>3</octave></pitch><duration>16</duration><voice>1</voice><type>whole</type><stem>up</stem><dynamics><pp /></dynamics></note><note><chord /><pitch><step>A</step><octave>4</octave></pitch><duration>16</duration><voice>1</voice><type>whole</type><stem>up</stem><dynamics><pp /></dynamics></note></measure><measure number="25"><note><pitch><step>F</step><octave>3</octave></pitch><duration>16</duration><voice>1</voice><type>whole</type><stem>up</stem><dynamics><pp /></dynamics></note><note><chord /><pitch><step>A</step><octave>4</octave></pitch><duration>16</duration><voice>1</voice><type>whole</type><stem>up</stem><dynamics><pp /></dynamics></note><note><chord /><pitch><step>C</step><octave>5</octave></pitch><duration>16</duration><voice>1</voice><type>whole</type><stem>up</stem><dynamics><pp /></dynamics></note></measure><measure number="26"><note><pitch><step>F</step><octave>3</octave></pitch><duration>16</duration><voice>1</voice><type>whole</type><stem>up</stem><dynamics><pp /></dynamics></note><note><chord /><pitch><step>A</step><octave>4</octave></pitch><duration>16</duration><voice>1</voice><type>whole</type><stem>up</stem><dynamics><pp /></dynamics></note><note><chord /><pitch><step>C</step><octave>5</octave></pitch><duration>16</duration><voice>1</voice><type>whole</type><stem>up</stem><dynamics><pp /></dynamics></note></measure><measure number="27"><note><pitch><step>F</step><octave>3</octave></pitch><duration>16</duration><voice>1</voice><type>whole</type><stem>up</stem><dynamics><pp /></dynamics></note><note><chord /><pitch><step>A</step><octave>4</octave></pitch><duration>16</duration><voice>1</voice><type>whole</type><stem>up</stem><dynamics><pp /></dynamics></note><note><chord /><pitch><step>C</step><octave>5</octave></pitch><duration>16</duration><voice>1</voice><type>whole</type><stem>up</stem><dynamics><pp /></dynamics></note></measure><measure number="28"><note><pitch><step>F</step><octave>3</octave></pitch><duration>16</duration><voice>1</voice><type>whole</type><stem>up</stem><dynamics><pp /></dynamics></note><note><chord /><pitch><step>A</step><octave>4</octave></pitch><duration>16</duration><voice>1</voice><type>whole</type><stem>up</stem><dynamics><pp /></dynamics></note></measure><measure number="29"><note><pitch><step>F</step><octave>3</octave></pitch><duration>16</duration><voice>1</voice><type>whole</type><stem>up</stem><dynamics><pp /></dynamics></note><note><chord /><pitch><step>A</step><octave>4</octave></pitch><duration>16</duration><voice>1</voice><type>whole</type><stem>up</stem><dynamics><pp /></dynamics></note><note><chord /><pitch><step>C</step><octave>5</octave></pitch><duration>16</duration><voice>1</voice><type>whole</type><stem>up</stem><dynamics><pp /></dynamics></note></measure><measure number="30"><note><pitch><step>F</step><octave>3</octave></pitch><duration>16</duration><voice>1</voice><type>whole</type><stem>up</stem><dynamics><pp /></dynamics></note><note><chord /><pitch><step>A</step><octave>4</octave></pitch><duration>16</duration><voice>1</voice><type>whole</type><stem>up</stem><dynamics><pp /></dynamics></note><note><chord /><pitch><step>C</step><octave>5</octave></pitch><duration>16</duration><voice>1</voice><type>whole</type><stem>up</stem><dynamics><pp /></dynamics></note></measure><measure number="31"><note><pitch><step>F</step><octave>3</octave></pitch><duration>16</duration><voice>1</voice><type>whole</type><stem>up</stem><dynamics><pp /></dynamics></note><note><chord /><pitch><step>A</step><octave>4</octave></pitch><duration>16</duration><voice>1</voice><type>whole</type><stem>up</stem><dynamics><pp /></dynamics></note><note><chord /><pitch><step>C</step><octave>5</octave></pitch><duration>16</duration><voice>1</voice><type>whole</type><stem>up</stem><dynamics><pp /></dynamics></note></measure><measure number="32"><note><pitch><step>F</step><octave>3</octave></pitch><duration>16</duration><voice>1</voice><type>whole</type><stem>up</stem><dynamics><pp /></dynamics></note><note><chord /><pitch><step>A</step><octave>4</octave></pitch><duration>16</duration><voice>1</voice><type>whole</type><stem>up</stem><dynamics><pp /></dynamics></note><note><chord /><pitch><step>C</step><octave>5</octave></pitch><duration>16</duration><voice>1</voice><type>whole</type><stem>up</stem><dynamics><pp /></dynamics></note></measure><measure number="33"><note><pitch><step>C</step><octave>3</octave></pitch><duration>16</duration><voice>1</voice><type>whole</type><stem>up</stem><dynamics><pp /></dynamics></note><note><chord /><pitch><step>E</step><octave>4</octave></pitch><duration>16</duration><voice>1</voice><type>whole</type><stem>up</stem><dynamics><pp /></dynamics></note><note><chord /><pitch><step>G</step><octave>4</octave></pitch><duration>16</duration><voice>1</voice><type>whole</type><stem>up</stem><dynamics><pp /></dynamics></note></measure><measure number="34"><note><pitch><step>C</step><octave>3</octave></pitch><duration>16</duration><voice>1</voice><type>whole</type><stem>up</stem><dynamics><pp /></dynamics></note><note><chord /><pitch><step>E</step><octave>4</octave></pitch><duration>16</duration><voice>1</voice><type>whole</type><stem>up</stem><dynamics><pp /></dynamics></note><note><chord /><pitch><step>G</step><octave>4</octave></pitch><duration>16</duration><voice>1</voice><type>whole</type><stem>up</stem><dynamics><pp /></dynamics></note></measure><measure number="35"><note><pitch><step>C</step><octave>3</octave></pitch><duration>16</duration><voice>1</voice><type>whole</type><stem>up</stem><dynamics><pp /></dynamics></note><note><chord /><pitch><step>E</step><octave>4</octave></pitch><duration>16</duration><voice>1</voice><type>whole</type><stem>up</stem><dynamics><pp /></dynamics></note><note><chord /><pitch><step>G</step><octave>4</octave></pitch><duration>16</duration><voice>1</voice><type>whole</type><stem>up</stem><dynamics><pp /></dynamics></note></measure><measure number="36"><note><pitch><step>C</step><octave>3</octave></pitch><duration>16</duration><voice>1</voice><type>whole</type><stem>up</stem><dynamics><pp /></dynamics></note><note><chord /><pitch><step>E</step><octave>4</octave></pitch><duration>16</duration><voice>1</voice><type>whole</type><stem>up</stem><dynamics><pp /></dynamics></note><note><chord /><pitch><step>G</step><octave>4</octave></pitch><duration>16</duration><voice>1</voice><type>whole</type><stem>up</stem><dynamics><pp /></dynamics></note></measure><measure number="37"><note><pitch><step>C</step><octave>3</octave></pitch><duration>16</duration><voice>1</voice><type>whole</type><stem>up</stem><dynamics><pp /></dynamics></note><note><chord /><pitch><step>E</step><octave>4</octave></pitch><duration>16</duration><voice>1</voice><type>whole</type><stem>up</stem><dynamics><pp /></dynamics></note><note><chord /><pitch><step>G</step><octave>4</octave></pitch><duration>16</duration><voice>1</voice><type>whole</type><stem>up</stem><dynamics><pp /></dynamics></note><note><chord /><pitch><step>F</step><alter>1</alter><octave>4</octave></pitch><duration>16</duration><voice>1</voice><type>whole</type><stem>up</stem><accidental>sharp</accidental><dynamics><pp /></dynamics></note></measure><measure number="38"><note><pitch><step>C</step><octave>3</octave></pitch><duration>16</duration><voice>1</voice><type>whole</type><stem>up</stem><dynamics><pp /></dynamics></note><note><chord /><pitch><step>E</step><octave>4</octave></pitch><duration>16</duration><voice>1</voice><type>whole</type><stem>up</stem><dynamics><pp /></dynamics></note><note><chord /><pitch><step>G</step><octave>4</octave></pitch><duration>16</duration><voice>1</voice><type>whole</type><stem>up</stem><dynamics><pp /></dynamics></note></measure><measure number="39"><note><pitch><step>C</step><octave>3</octave></pitch><duration>16</duration><voice>1</voice><type>whole</type><stem>up</stem><dynamics><pp /></dynamics></note><note><chord /><pitch><step>E</step><octave>4</octave></pitch><duration>16</duration><voice>1</voice><type>whole</type><stem>up</stem><dynamics><pp /></dynamics></note><note><chord /><pitch><step>G</step><octave>4</octave></pitch><duration>16</duration><voice>1</voice><type>whole</type><stem>up</stem><dynamics><pp /></dynamics></note></measure><measure number="40"><note><pitch><step>C</step><octave>3</octave></pitch><duration>16</duration><voice>1</voice><type>whole</type><stem>up</stem><dynamics><pp /></dynamics></note><note><chord /><pitch><step>E</step><octave>4</octave></pitch><duration>16</duration><voice>1</voice><type>whole</type><stem>up</stem><dynamics><pp /></dynamics></note><note><chord /><pitch><step>G</step><octave>4</octave></pitch><duration>16</duration><voice>1</voice><type>whole</type><stem>up</stem><dynamics><pp /></dynamics></note></measure><measure number="41"><note><rest /><duration>16</duration><voice>1</voice><type>whole</type></note></measure><measure number="42"><note><rest /><duration>16</duration><voice>1</voice><type>whole</type></note></measure><measure number="43"><note><pitch><step>C</step><octave>3</octave></pitch><duration>16</duration><voice>1</voice><type>whole</type><stem>up</stem><dynamics><pp /></dynamics></note><note><chord /><pitch><step>E</step><octave>4</octave></pitch><duration>16</duration><voice>1</voice><type>whole</type><stem>up</stem><dynamics><pp /></dynamics></note></measure><measure number="44"><note><pitch><step>C</step><octave>3</octave></pitch><duration>16</duration><voice>1</voice><type>whole</type><stem>up</stem><dynamics><pp /></dynamics></note></measure><measure number="45"><note><pitch><step>E</step><alter>-1</alter><octave>3</octave></pitch><duration>16</duration><voice>1</voice><type>whole</type><stem>up</stem><accidental>flat</accidental><dynamics><pp /></dynamics></note><note><chord /><pitch><step>G</step><octave>4</octave></pitch><duration>16</duration><voice>1</voice><type>whole</type><stem>up</stem><dynamics><pp /></dynamics></note></measure><measure number="46"><note><pitch><step>E</step><alter>-1</alter><octave>3</octave></pitch><duration>16</duration><voice>1</voice><type>whole</type><stem>up</stem><accidental>flat</accidental><dynamics><pp /></dynamics></note><note><chord /><pitch><step>G</step><octave>4</octave></pitch><duration>16</duration><voice>1</voice><type>whole</type><stem>up</stem><dynamics><pp /></dynamics></note></measure><measure number="47"><note><pitch><step>B</step><octave>3</octave></pitch><duration>16</duration><voice>1</voice><type>whole</type><stem>up</stem><dynamics><pp /></dynamics></note></measure><measure number="48"><note><pitch><step>B</step><octave>3</octave></pitch><duration>16</duration><voice>1</voice><type>whole</type><stem>up</stem><dynamics><pp /></dynamics></note><note><chord /><pitch><step>F</step><alter>1</alter><octave>4</octave></pitch><duration>16</duration><voice>1</voice><type>whole</type><stem>up</stem><accidental>sharp</accidental><dynamics><pp /></dynamics></note></measure><measure number="49"><note><pitch><step>B</step><octave>3</octave></pitch><duration>16</duration><voice>1</voice><type>whole</type><stem>up</stem><dynamics><pp /></dynamics></note><note><chord /><pitch><step>F</step><alter>1</alter><octave>4</octave></pitch><duration>16</duration><voice>1</voice><type>whole</type><stem>up</stem><accidental>sharp</accidental><dynamics><pp /></dynamics></note></measure><measure number="50"><note><pitch><step>B</step><octave>3</octave></pitch><duration>16</duration><voice>1</voice><type>whole</type><stem>up</stem><dynamics><pp /></dynamics></note><note><chord /><pitch><step>F</step><alter>1</alter><octave>4</octave></pitch><duration>16</duration><voice>1</voice><type>whole</type><stem>up</stem><accidental>sharp</accidental><dynamics><pp /></dynamics></note></measure><measure number="51"><note><pitch><step>B</step><octave>3</octave></pitch><duration>16</duration><voice>1</voice><type>whole</type><stem>up</stem><dynamics><pp /></dynamics></note><note><chord /><pitch><step>F</step><alter>1</alter><octave>4</octave></pitch><duration>16</duration><voice>1</voice><type>whole</type><stem>up</stem><accidental>sharp</accidental><dynamics><pp /></dynamics></note></measure><measure number="52"><note><pitch><step>B</step><octave>3</octave></pitch><duration>16</duration><voice>1</voice><type>whole</type><stem>up</stem><dynamics><pp /></dynamics></note><note><chord /><pitch><step>F</step><alter>1</alter><octave>4</octave></pitch><duration>16</duration><voice>1</voice><type>whole</type><stem>up</stem><accidental>sharp</accidental><dynamics><pp /></dynamics></note></measure><measure number="53"><note><pitch><step>B</step><octave>3</octave></pitch><duration>16</duration><voice>1</voice><type>whole</type><stem>up</stem><dynamics><pp /></dynamics></note><note><chord /><pitch><step>F</step><alter>1</alter><octave>4</octave></pitch><duration>16</duration><voice>1</voice><type>whole</type><stem>up</stem><accidental>sharp</accidental><dynamics><pp /></dynamics></note></measure><measure number="54"><note><pitch><step>B</step><octave>3</octave></pitch><duration>16</duration><voice>1</voice><type>whole</type><stem>up</stem><dynamics><pp /></dynamics></note></measure><measure number="55"><note><pitch><step>B</step><octave>3</octave></pitch><duration>16</duration><voice>1</voice><type>whole</type><stem>up</stem><dynamics><pp /></dynamics></note></measure><measure number="56"><note><rest /><duration>16</duration><voice>1</voice><type>whole</type></note></measure><measure number="57"><note><pitch><step>B</step><octave>3</octave></pitch><duration>16</duration><voice>1</voice><type>whole</type><stem>up</stem><dynamics><pp /></dynamics></note></measure><measure number="58"><note><rest /><duration>16</duration><voice>1</voice><type>whole</type></note></measure><measure number="59"><note><pitch><step>B</step><octave>3</octave></pitch><duration>16</duration><voice>1</voice><type>whole</type><stem>up</stem><dynamics><pp /></dynamics></note></measure><measure number="60"><note><rest /><duration>16</duration><voice>1</voice><type>whole</type></note></measure><measure number="61"><note><pitch><step>B</step><octave>3</octave></pitch><duration>16</duration><voice>1</voice><type>whole</type><stem>up</stem><dynamics><pp /></dynamics></note><note><chord /><pitch><step>F</step><alter>1</alter><octave>4</octave></pitch><duration>16</duration><voice>1</voice><type>whole</type><stem>up</stem><accidental>sharp</accidental><dynamics><pp /></dynamics></note></measure><measure number="62"><note><pitch><step>B</step><octave>3</octave></pitch><duration>16</duration><voice>1</voice><type>whole</type><stem>up</stem><dynamics><pp /></dynamics></note><note><chord /><pitch><step>F</step><alter>1</alter><octave>4</octave></pitch><duration>16</duration><voice>1</voice><type>whole</type><stem>up</stem><accidental>sharp</accidental><dynamics><pp /></dynamics></note></measure><measure number="63"><note><pitch><step>B</step><octave>3</octave></pitch><duration>16</duration><voice>1</voice><type>whole</type><stem>up</stem><dynamics><pp /></dynamics></note><note><chord /><pitch><step>F</step><alter>1</alter><octave>4</octave></pitch><duration>16</duration><voice>1</voice><type>whole</type><stem>up</stem><accidental>sharp</accidental><dynamics><pp /></dynamics></note></measure><measure number="64"><note><pitch><step>B</step><octave>3</octave></pitch><duration>16</duration><voice>1</voice><type>whole</type><stem>up</stem><dynamics><pp /></dynamics></note><note><chord /><pitch><step>F</step><alter>1</alter><octave>4</octave></pitch><duration>16</duration><voice>1</voice><type>whole</type><stem>up</stem><accidental>sharp</accidental><dynamics><pp /></dynamics></note></measure></part><part id="P3"><measure number="1"><attributes><divisions>4</divisions><key><fifths>-3</fifths><mode>minor</mode></key><time><beats>4</beats><beat-type>4</beat-type></time><clef><sign>F</sign><line>4</line></clef></attributes><note><pitch><step>B</step><octave>2</octave></pitch><duration>16</duration><voice>1</voice><type>whole</type><stem>up</stem><dynamics><pp /></dynamics></note></measure><measure number="2"><note><pitch><step>C</step><octave>2</octave></pitch><duration>16</duration><voice>1</voice><type>whole</type><stem>up</stem><dynamics><pp /></dynamics></note></measure><measure number="3"><note><pitch><step>B</step><octave>2</octave></pitch><duration>16</duration><voice>1</voice><type>whole</type><stem>up</stem><dynamics><pp /></dynamics></note></measure><measure number="4"><note><rest /><duration>16</duration><voice>1</voice><type>whole</type></note></measure><measure number="5"><note><pitch><step>B</step><octave>2</octave></pitch><duration>16</duration><voice>1</voice><type>whole</type><stem>up</stem><dynamics><pp /></dynamics></note></measure><measure number="6"><note><pitch><step>C</step><octave>2</octave></pitch><duration>16</duration><voice>1</voice><type>whole</type><stem>up</stem><dynamics><pp /></dynamics></note></measure><measure number="7"><note><pitch><step>B</step><octave>2</octave></pitch><duration>16</duration><voice>1</voice><type>whole</type><stem>up</stem><dynamics><pp /></dynamics></note></measure><measure number="8"><note><pitch><step>F</step><alter>1</alter><octave>2</octave></pitch><duration>16</duration><voice>1</voice><type>whole</type><stem>up</stem><accidental>sharp</accidental><dynamics><pp /></dynamics></note></measure><measure number="9"><note><pitch><step>B</step><octave>2</octave></pitch><duration>16</duration><voice>1</voice><type>whole</type><stem>up</stem><dynamics><pp /></dynamics></note></measure><measure number="10"><note><pitch><step>C</step><octave>2</octave></pitch><duration>16</duration><voice>1</voice><type>whole</type><stem>up</stem><dynamics><pp /></dynamics></note></measure><measure number="11"><note><pitch><step>B</step><octave>2</octave></pitch><duration>16</duration><voice>1</voice><type>whole</type><stem>up</stem><dynamics><pp /></dynamics></note></measure><measure number="12"><note><pitch><step>A</step><octave>2</octave></pitch><duration>16</duration><voice>1</voice><type>whole</type><stem>up</stem><dynamics><pp /></dynamics></note></measure><measure number="13"><note><pitch><step>B</step><octave>2</octave></pitch><duration>16</duration><voice>1</voice><type>whole</type><stem>up</stem><dynamics><pp /></dynamics></note></measure><measure number="14"><note><rest /><duration>16</duration><voice>1</voice><type>whole</type></note></measure><measure number="15"><note><pitch><step>B</step><octave>2</octave></pitch><duration>16</duration><voice>1</voice><type>whole</type><stem>up</stem><dynamics><pp /></dynamics></note></measure><measure number="16"><note><pitch><step>F</step><alter>1</alter><octave>2</octave></pitch><duration>16</duration><voice>1</voice><type>whole</type><stem>up</stem><accidental>sharp</accidental><dynamics><pp /></dynamics></note></measure><measure number="17"><note><pitch><step>D</step><octave>2</octave></pitch><duration>16</duration><voice>1</voice><type>whole</type><stem>up</stem><dynamics><pp /></dynamics></note></measure><measure number="18"><note><pitch><step>D</step><octave>2</octave></pitch><duration>16</duration><voice>1</voice><type>whole</type><stem>up</stem><dynamics><pp /></dynamics></note></measure><measure number="19"><note><pitch><step>D</step><octave>2</octave></pitch><duration>16</duration><voice>1</voice><type>whole</type><stem>up</stem><dynamics><pp /></dynamics></note></measure><measure number="20"><note><pitch><step>B</step><alter>-1</alter><octave>2</octave></pitch><duration>16</duration><voice>1</voice><type>whole</type><stem>up</stem><accidental>flat</accidental><dynamics><pp /></dynamics></note></measure><measure number="21"><note><pitch><step>D</step><octave>2</octave></pitch><duration>16</duration><voice>1</voice><type>whole</type><stem>up</stem><dynamics><pp /></dynamics></note></measure><measure number="22"><note><pitch><step>C</step><octave>2</octave></pitch><duration>16</duration><voice>1</voice><type>whole</type><stem>up</stem><dynamics><pp /></dynamics></note></measure><measure number="23"><note><pitch><step>D</step><octave>2</octave></pitch><duration>16</duration><voice>1</voice><type>whole</type><stem>up</stem><dynamics><pp /></dynamics></note></measure><measure number="24"><note><pitch><step>F</step><octave>2</octave></pitch><duration>16</duration><voice>1</voice><type>whole</type><stem>up</stem><dynamics><pp /></dynamics></note></measure><measure number="25"><note><pitch><step>F</step><octave>2</octave></pitch><duration>16</duration><voice>1</voice><type>whole</type><stem>up</stem><dynamics><pp /></dynamics></note></measure><measure number="26"><note><pitch><step>F</step><octave>2</octave></pitch><duration>16</duration><voice>1</voice><type>whole</type><stem>up</stem><dynamics><pp /></dynamics></note></measure><measure number="27"><note><pitch><step>A</step><octave>2</octave></pitch><duration>16</duration><voice>1</voice><type>whole</type><stem>up</stem><dynamics><pp /></dynamics></note></measure><measure number="28"><note><pitch><step>F</step><octave>2</octave></pitch><duration>16</duration><voice>1</voice><type>whole</type><stem>up</stem><dynamics><pp /></dynamics></note></measure><measure number="29"><note><pitch><step>F</step><octave>2</octave></pitch><duration>16</duration><voice>1</voice><type>whole</type><stem>up</stem><dynamics><pp /></dynamics></note></measure><measure number="30"><note><pitch><step>C</step><octave>2</octave></pitch><duration>16</duration><voice>1</voice><type>whole</type><stem>up</stem><dynamics><pp /></dynamics></note></measure><measure number="31"><note><pitch><step>F</step><octave>2</octave></pitch><duration>16</duration><voice>1</voice><type>whole</type><stem>up</stem><dynamics><pp /></dynamics></note></measure><measure number="32"><note><pitch><step>F</step><octave>2</octave></pitch><duration>16</duration><voice>1</voice><type>whole</type><stem>up</stem><dynamics><pp /></dynamics></note></measure><measure number="33"><note><pitch><step>C</step><octave>2</octave></pitch><duration>16</duration><voice>1</voice><type>whole</type><stem>up</stem><dynamics><pp /></dynamics></note></measure><measure number="34"><note><pitch><step>C</step><octave>2</octave></pitch><duration>16</duration><voice>1</voice><type>whole</type><stem>up</stem><dynamics><pp /></dynamics></note></measure><measure number="35"><note><pitch><step>C</step><octave>2</octave></pitch><duration>16</duration><voice>1</voice><type>whole</type><stem>up</stem><dynamics><pp /></dynamics></note></measure><measure number="36"><note><pitch><step>G</step><octave>2</octave></pitch><duration>16</duration><voice>1</voice><type>whole</type><stem>up</stem><dynamics><pp /></dynamics></note></measure><measure number="37"><note><pitch><step>C</step><octave>2</octave></pitch><duration>16</duration><voice>1</voice><type>whole</type><stem>up</stem><dynamics><pp /></dynamics></note></measure><measure number="38"><note><pitch><step>C</step><octave>2</octave></pitch><duration>16</duration><voice>1</voice><type>whole</type><stem>up</stem><dynamics><pp /></dynamics></note></measure><measure number="39"><note><pitch><step>C</step><octave>2</octave></pitch><duration>16</duration><voice>1</voice><type>whole</type><stem>up</stem><dynamics><pp /></dynamics></note></measure><measure number="40"><note><pitch><step>E</step><octave>2</octave></pitch><duration>16</duration><voice>1</voice><type>whole</type><stem>up</stem><dynamics><pp /></dynamics></note></measure><measure number="41"><note><pitch><step>C</step><octave>2</octave></pitch><duration>16</duration><voice>1</voice><type>whole</type><stem>up</stem><dynamics><pp /></dynamics></note></measure><measure number="42"><note><pitch><step>C</step><octave>2</octave></pitch><duration>16</duration><voice>1</voice><type>whole</type><stem>up</stem><dynamics><pp /></dynamics></note></measure><measure number="43"><note><rest /><duration>16</duration><voice>1</voice><type>whole</type></note></measure><measure number="44"><note><pitch><step>C</step><octave>2</octave></pitch><duration>16</duration><voice>1</voice><type>whole</type><stem>up</stem><dynamics><pp /></dynamics></note></measure><measure number="45"><note><pitch><step>E</step><octave>2</octave></pitch><duration>16</duration><voice>1</voice><type>whole</type><stem>up</stem><dynamics><pp /></dynamics></note></measure><measure number="46"><note><pitch><step>E</step><alter>-1</alter><octave>2</octave></pitch><duration>16</duration><voice>1</voice><type>whole</type><stem>up</stem><accidental>flat</accidental><dynamics><pp /></dynamics></note></measure><measure number="47"><note><pitch><step>B</step><octave>2</octave></pitch><duration>16</duration><voice>1</voice><type>whole</type><stem>up</stem><dynamics><pp /></dynamics></note></measure><measure number="48"><note><pitch><step>C</step><octave>2</octave></pitch><duration>16</duration><voice>1</voice><type>whole</type><stem>up</stem><dynamics><pp /></dynamics></note></measure><measure number="49"><note><pitch><step>B</step><octave>2</octave></pitch><duration>16</duration><voice>1</voice><type>whole</type><stem>up</stem><dynamics><pp /></dynamics></note></measure><measure number="50"><note><pitch><step>A</step><octave>2</octave></pitch><duration>16</duration><voice>1</voice><type>whole</type><stem>up</stem><dynamics><pp /></dynamics></note></measure><measure number="51"><note><pitch><step>B</step><octave>2</octave></pitch><duration>16</duration><voice>1</voice><type>whole</type><stem>up</stem><dynamics><pp /></dynamics></note></measure><measure number="52"><note><pitch><step>F</step><alter>1</alter><octave>2</octave></pitch><duration>16</duration><voice>1</voice><type>whole</type><stem>up</stem><accidental>sharp</accidental><dynamics><pp /></dynamics></note></measure><measure number="53"><note><pitch><step>B</step><octave>2</octave></pitch><duration>16</duration><voice>1</voice><type>whole</type><stem>up</stem><dynamics><pp /></dynamics></note></measure><measure number="54"><note><pitch><step>C</step><octave>2</octave></pitch><duration>16</duration><voice>1</voice><type>whole</type><stem>up</stem><dynamics><pp /></dynamics></note></measure><measure number="55"><note><pitch><step>B</step><octave>2</octave></pitch><duration>16</duration><voice>1</voice><type>whole</type><stem>up</stem><dynamics><pp /></dynamics></note></measure><measure number="56"><note><pitch><step>A</step><octave>2</octave></pitch><duration>16</duration><voice>1</voice><type>whole</type><stem>up</stem><dynamics><pp /></dynamics></note></measure><measure number="57"><note><pitch><step>B</step><octave>2</octave></pitch><duration>16</duration><voice>1</voice><type>whole</type><stem>up</stem><dynamics><pp /></dynamics></note></measure><measure number="58"><note><pitch><step>C</step><octave>2</octave></pitch><duration>16</duration><voice>1</voice><type>whole</type><stem>up</stem><dynamics><pp /></dynamics></note></measure><measure number="59"><note><rest /><duration>16</duration><voice>1</voice><type>whole</type></note></measure><measure number="60"><note><pitch><step>F</step><alter>1</alter><octave>2</octave></pitch><duration>16</duration><voice>1</voice><type>whole</type><stem>up</stem><accidental>sharp</accidental><dynamics><pp /></dynamics></note></measure><measure number="61"><note><rest /><duration>16</duration><voice>1</voice><type>whole</type></note></measure><measure number="62"><note><pitch><step>C</step><octave>2</octave></pitch><duration>16</duration><voice>1</voice><type>whole</type><stem>up</stem><dynamics><pp /></dynamics></note></measure><measure number="63"><note><pitch><step>B</step><octave>2</octave></pitch><duration>16</duration><voice>1</voice><type>whole</type><stem>up</stem><dynamics><pp /></dynamics></note></measure><measure number="64"><note><pitch><step>A</step><octave>2</octave></pitch><duration>16</duration><voice>1</voice><type>whole</type><stem>up</stem><dynamics><pp /></dynamics></note></measure></part></score-partwise>