<?xml version='1.0' encoding='cp1252'?>
<score-partwise version="3.1" xmlns="http://www.musicxml.org/ns/3.1"><work><work-title>Fractured Motion – Orbit Version</work-title><creator type="composer">Mike Bryant</creator></work><identification><encoding><encoding-date>2026-02-23</encoding-date><software>Fractured Motion Orbit V1 / GCE-Jazz V1.0</software></encoding></identification><defaults><scaling><millimeters>7.0</millimeters><tenths>40</tenths></scaling></defaults><part-list><score-part id="P1"><part-name>Melody (Concert)</part-name></score-part></part-list><part id="P1"><measure number="1"><attributes><divisions>4</divisions><key><fifths>-3</fifths><mode>minor</mode></key><time><beats>4</beats><beat-type>4</beat-type></time><clef><sign>G</sign><line>2</line></clef></attributes><direction placement="above"><direction-type><metronome><beat-unit>quarter</beat-unit><per-minute>72</per-minute></metronome></direction-type></direction><sound tempo="72" /><direction placement="above"><direction-type><words>Bm(add9)</words></direction-type></direction><note><pitch><step>B</step><octave>4</octave></pitch><duration>8</duration><voice>1</voice><type>half</type><stem>up</stem></note><note><pitch><step>A</step><octave>4</octave></pitch><duration>4</duration><voice>1</voice><type>quarter</type><stem>up</stem></note><note><pitch><step>C</step><alter>1</alter><octave>5</octave></pitch><duration>4</duration><voice>1</voice><type>quarter</type><stem>up</stem><accidental>sharp</accidental></note></measure><measure number="2"><direction placement="above"><direction-type><words>Bm(add9)/C</words></direction-type></direction><note><pitch><step>B</step><octave>4</octave></pitch><duration>8</duration><voice>1</voice><type>half</type><stem>up</stem></note><note><pitch><step>A</step><octave>4</octave></pitch><duration>8</duration><voice>1</voice><type>half</type><stem>up</stem></note></measure><measure number="3"><direction placement="above"><direction-type><words>Bm(add9)</words></direction-type></direction><note><pitch><step>F</step><alter>1</alter><octave>4</octave></pitch><duration>16</duration><voice>1</voice><type>whole</type><stem>up</stem><accidental>sharp</accidental></note></measure><measure number="4"><direction placement="above"><direction-type><words>Bm(add9)/A</words></direction-type></direction><note><pitch><step>A</step><octave>4</octave></pitch><duration>8</duration><voice>1</voice><type>half</type><stem>up</stem></note><note><pitch><step>B</step><octave>4</octave></pitch><duration>4</duration><voice>1</voice><type>quarter</type><stem>up</stem></note><note><pitch><step>C</step><alter>1</alter><octave>5</octave></pitch><duration>4</duration><voice>1</voice><type>quarter</type><stem>up</stem><accidental>sharp</accidental></note></measure><measure number="5"><direction placement="above"><direction-type><words>Bm(add9)</words></direction-type></direction><note><pitch><step>B</step><octave>4</octave></pitch><duration>16</duration><voice>1</voice><type>whole</type><stem>up</stem></note></measure><measure number="6"><direction placement="above"><direction-type><words>Bm(add9)/C</words></direction-type></direction><note><pitch><step>A</step><octave>4</octave></pitch><duration>8</duration><voice>1</voice><type>half</type><stem>up</stem></note><note><pitch><step>G</step><octave>4</octave></pitch><duration>8</duration><voice>1</voice><type>half</type><stem>up</stem></note></measure><measure number="7"><direction placement="above"><direction-type><words>Bm(add9)</words></direction-type></direction><note><pitch><step>F</step><alter>1</alter><octave>4</octave></pitch><duration>4</duration><voice>1</voice><type>quarter</type><stem>up</stem><accidental>sharp</accidental></note><note><pitch><step>E</step><octave>4</octave></pitch><duration>4</duration><voice>1</voice><type>quarter</type><stem>up</stem></note><note><pitch><step>D</step><octave>4</octave></pitch><duration>8</duration><voice>1</voice><type>half</type><stem>up</stem></note></measure><measure number="8"><direction placement="above"><direction-type><words>Bm(add9)/F#</words></direction-type></direction><note><pitch><step>E</step><octave>4</octave></pitch><duration>8</duration><voice>1</voice><type>half</type><stem>up</stem></note><note><pitch><step>F</step><alter>1</alter><octave>4</octave></pitch><duration>8</duration><voice>1</voice><type>half</type><stem>up</stem><accidental>sharp</accidental></note></measure><measure number="9"><direction placement="above"><direction-type><words>Bm(add9)</words></direction-type></direction><note><pitch><step>A</step><octave>4</octave></pitch><duration>16</duration><voice>1</voice><type>whole</type><stem>up</stem></note></measure><measure number="10"><direction placement="above"><direction-type><words>Bm(add9)/C</words></direction-type></direction><note><pitch><step>B</step><octave>4</octave></pitch><duration>8</duration><voice>1</voice><type>half</type><stem>up</stem></note><note><pitch><step>C</step><alter>1</alter><octave>5</octave></pitch><duration>8</duration><voice>1</voice><type>half</type><stem>up</stem><accidental>sharp</accidental></note></measure><measure number="11"><direction placement="above"><direction-type><words>Bm(add9)</words></direction-type></direction><note><pitch><step>B</step><octave>4</octave></pitch><duration>16</duration><voice>1</voice><type>whole</type><stem>up</stem></note></measure><measure number="12"><direction placement="above"><direction-type><words>Bm(add9)/A</words></direction-type></direction><note><pitch><step>A</step><octave>4</octave></pitch><duration>8</duration><voice>1</voice><type>half</type><stem>up</stem></note><note><pitch><step>F</step><alter>1</alter><octave>4</octave></pitch><duration>8</duration><voice>1</voice><type>half</type><stem>up</stem><accidental>sharp</accidental></note></measure><measure number="13"><direction placement="above"><direction-type><words>Bm(add9)</words></direction-type></direction><note><pitch><step>E</step><octave>4</octave></pitch><duration>16</duration><voice>1</voice><type>whole</type><stem>up</stem></note></measure><measure number="14"><direction placement="above"><direction-type><words>Bm(add9)/C</words></direction-type></direction><note><pitch><step>F</step><alter>1</alter><octave>4</octave></pitch><duration>4</duration><voice>1</voice><type>quarter</type><stem>up</stem><accidental>sharp</accidental></note><note><pitch><step>G</step><octave>4</octave></pitch><duration>4</duration><voice>1</voice><type>quarter</type><stem>up</stem></note><note><pitch><step>A</step><octave>4</octave></pitch><duration>8</duration><voice>1</voice><type>half</type><stem>up</stem></note></measure><measure number="15"><direction placement="above"><direction-type><words>Bm(add9)</words></direction-type></direction><note><pitch><step>B</step><octave>4</octave></pitch><duration>16</duration><voice>1</voice><type>whole</type><stem>up</stem></note></measure><measure number="16"><direction placement="above"><direction-type><words>Bm(add9)/F#</words></direction-type></direction><note><pitch><step>A</step><octave>4</octave></pitch><duration>8</duration><voice>1</voice><type>half</type><stem>up</stem></note><note><pitch><step>B</step><octave>4</octave></pitch><duration>4</duration><voice>1</voice><type>quarter</type><stem>up</stem></note><note><pitch><step>F</step><alter>1</alter><octave>4</octave></pitch><duration>4</duration><voice>1</voice><type>quarter</type><stem>up</stem><accidental>sharp</accidental></note></measure><measure number="17"><direction placement="above"><direction-type><words>D(add4)</words></direction-type></direction><note><pitch><step>D</step><octave>5</octave></pitch><duration>8</duration><voice>1</voice><type>half</type><stem>up</stem></note><note><pitch><step>F</step><alter>1</alter><octave>5</octave></pitch><duration>8</duration><voice>1</voice><type>half</type><stem>up</stem><accidental>sharp</accidental></note></measure><measure number="18"><direction placement="above"><direction-type><words>D6</words></direction-type></direction><note><pitch><step>A</step><octave>5</octave></pitch><duration>16</duration><voice>1</voice><type>whole</type><stem>up</stem></note></measure><measure number="19"><direction placement="above"><direction-type><words>D(add4)</words></direction-type></direction><note><pitch><step>G</step><octave>5</octave></pitch><duration>8</duration><voice>1</voice><type>half</type><stem>up</stem></note><note><pitch><step>A</step><octave>5</octave></pitch><duration>8</duration><voice>1</voice><type>half</type><stem>up</stem></note></measure><measure number="20"><direction placement="above"><direction-type><words>Bbmaj(#11)</words></direction-type></direction><note><pitch><step>F</step><alter>1</alter><octave>5</octave></pitch><duration>16</duration><voice>1</voice><type>whole</type><stem>up</stem><accidental>sharp</accidental></note></measure><measure number="21"><direction placement="above"><direction-type><words>D(add4)</words></direction-type></direction><note><pitch><step>A</step><octave>5</octave></pitch><duration>8</duration><voice>1</voice><type>half</type><stem>up</stem></note><note><pitch><step>B</step><octave>5</octave></pitch><duration>4</duration><voice>1</voice><type>quarter</type><stem>up</stem></note><note><pitch><step>C</step><octave>5</octave></pitch><duration>4</duration><voice>1</voice><type>quarter</type><stem>up</stem></note></measure><measure number="22"><direction placement="above"><direction-type><words>D(add4)/C</words></direction-type></direction><note><pitch><step>C</step><octave>5</octave></pitch><duration>16</duration><voice>1</voice><type>whole</type><stem>up</stem></note></measure><measure number="23"><direction placement="above"><direction-type><words>D(add4)</words></direction-type></direction><note><pitch><step>A</step><octave>4</octave></pitch><duration>8</duration><voice>1</voice><type>half</type><stem>up</stem></note><note><pitch><step>F</step><octave>4</octave></pitch><duration>8</duration><voice>1</voice><type>half</type><stem>up</stem></note></measure><measure number="24"><direction placement="above"><direction-type><words>Fmaj7(add4)</words></direction-type></direction><note><pitch><step>F</step><octave>4</octave></pitch><duration>16</duration><voice>1</voice><type>whole</type><stem>up</stem></note></measure><measure number="25"><direction placement="above"><direction-type><words>F(add4)</words></direction-type></direction><note><pitch><step>A</step><octave>4</octave></pitch><duration>8</duration><voice>1</voice><type>half</type><stem>up</stem></note><note><pitch><step>B</step><octave>4</octave></pitch><duration>8</duration><voice>1</voice><type>half</type><stem>up</stem></note></measure><measure number="26"><direction placement="above"><direction-type><words>Fmaj7(add4)</words></direction-type></direction><note><pitch><step>C</step><octave>5</octave></pitch><duration>16</duration><voice>1</voice><type>whole</type><stem>up</stem></note></measure><measure number="27"><direction placement="above"><direction-type><words>F(add4)/A</words></direction-type></direction><note><pitch><step>B</step><octave>4</octave></pitch><duration>8</duration><voice>1</voice><type>half</type><stem>up</stem></note><note><pitch><step>A</step><octave>4</octave></pitch><duration>8</duration><voice>1</voice><type>half</type><stem>up</stem></note></measure><measure number="28"><direction placement="above"><direction-type><words>Fmaj7(add4)</words></direction-type></direction><note><pitch><step>G</step><octave>4</octave></pitch><duration>16</duration><voice>1</voice><type>whole</type><stem>up</stem></note></measure><measure number="29"><direction placement="above"><direction-type><words>F(add4)</words></direction-type></direction><note><pitch><step>A</step><octave>4</octave></pitch><duration>8</duration><voice>1</voice><type>half</type><stem>up</stem></note><note><pitch><step>C</step><octave>5</octave></pitch><duration>8</duration><voice>1</voice><type>half</type><stem>up</stem></note></measure><measure number="30"><direction placement="above"><direction-type><words>Fmaj7(add4)/C</words></direction-type></direction><note><pitch><step>B</step><octave>4</octave></pitch><duration>16</duration><voice>1</voice><type>whole</type><stem>up</stem></note></measure><measure number="31"><direction placement="above"><direction-type><words>F(add4)</words></direction-type></direction><note><pitch><step>C</step><octave>5</octave></pitch><duration>8</duration><voice>1</voice><type>half</type><stem>up</stem></note><note><pitch><step>D</step><octave>5</octave></pitch><duration>8</duration><voice>1</voice><type>half</type><stem>up</stem></note></measure><measure number="32"><direction placement="above"><direction-type><words>Fmaj7(add4)</words></direction-type></direction><note><pitch><step>E</step><octave>5</octave></pitch><duration>16</duration><voice>1</voice><type>whole</type><stem>up</stem></note></measure><measure number="33"><direction placement="above"><direction-type><words>Cmaj7(#11)</words></direction-type></direction><note><pitch><step>G</step><octave>5</octave></pitch><duration>8</duration><voice>1</voice><type>half</type><stem>up</stem></note><note><pitch><step>E</step><octave>5</octave></pitch><duration>8</duration><voice>1</voice><type>half</type><stem>up</stem></note></measure><measure number="34"><direction placement="above"><direction-type><words>C(add4)</words></direction-type></direction><note><pitch><step>E</step><octave>5</octave></pitch><duration>16</duration><voice>1</voice><type>whole</type><stem>up</stem></note></measure><measure number="35"><direction placement="above"><direction-type><words>Cmaj7(#11)</words></direction-type></direction><note><pitch><step>G</step><octave>5</octave></pitch><duration>4</duration><voice>1</voice><type>quarter</type><stem>up</stem></note><note><pitch><step>A</step><octave>5</octave></pitch><duration>4</duration><voice>1</voice><type>quarter</type><stem>up</stem></note><note><pitch><step>B</step><octave>5</octave></pitch><duration>8</duration><voice>1</voice><type>half</type><stem>up</stem></note></measure><measure number="36"><direction placement="above"><direction-type><words>C(add4)/G</words></direction-type></direction><note><pitch><step>B</step><octave>5</octave></pitch><duration>16</duration><voice>1</voice><type>whole</type><stem>up</stem></note></measure><measure number="37"><direction placement="above"><direction-type><words>Cmaj7(#11)</words></direction-type></direction><note><pitch><step>A</step><octave>5</octave></pitch><duration>8</duration><voice>1</voice><type>half</type><stem>up</stem></note><note><pitch><step>G</step><octave>5</octave></pitch><duration>8</duration><voice>1</voice><type>half</type><stem>up</stem></note></measure><measure number="38"><direction placement="above"><direction-type><words>C(add4)</words></direction-type></direction><note><pitch><step>E</step><octave>5</octave></pitch><duration>16</duration><voice>1</voice><type>whole</type><stem>up</stem></note></measure><measure number="39"><direction placement="above"><direction-type><words>Cmaj7(#11)</words></direction-type></direction><note><pitch><step>F</step><alter>1</alter><octave>5</octave></pitch><duration>8</duration><voice>1</voice><type>half</type><stem>up</stem><accidental>sharp</accidental></note><note><pitch><step>G</step><octave>5</octave></pitch><duration>8</duration><voice>1</voice><type>half</type><stem>up</stem></note></measure><measure number="40"><direction placement="above"><direction-type><words>C(add4)/E</words></direction-type></direction><note><pitch><step>G</step><octave>5</octave></pitch><duration>16</duration><voice>1</voice><type>whole</type><stem>up</stem></note></measure><measure number="41"><direction placement="above"><direction-type><words>Cmaj7(#11)</words></direction-type></direction><note><pitch><step>E</step><octave>5</octave></pitch><duration>8</duration><voice>1</voice><type>half</type><stem>up</stem></note><note><pitch><step>D</step><octave>5</octave></pitch><duration>8</duration><voice>1</voice><type>half</type><stem>up</stem></note></measure><measure number="42"><direction placement="above"><direction-type><words>C(add4)</words></direction-type></direction><note><pitch><step>C</step><octave>5</octave></pitch><duration>16</duration><voice>1</voice><type>whole</type><stem>up</stem></note></measure><measure number="43"><direction placement="above"><direction-type><words>Cmaj7(#11)</words></direction-type></direction><note><pitch><step>D</step><octave>5</octave></pitch><duration>8</duration><voice>1</voice><type>half</type><stem>up</stem></note><note><pitch><step>E</step><octave>5</octave></pitch><duration>4</duration><voice>1</voice><type>quarter</type><stem>up</stem></note><note><pitch><step>C</step><octave>5</octave></pitch><duration>4</duration><voice>1</voice><type>quarter</type><stem>up</stem></note></measure><measure number="44"><direction placement="above"><direction-type><words>C(add4)</words></direction-type></direction><note><pitch><step>B</step><octave>4</octave></pitch><duration>16</duration><voice>1</voice><type>whole</type><stem>up</stem></note></measure><measure number="45"><direction placement="above"><direction-type><words>Eb(add9)</words></direction-type></direction><note><pitch><step>G</step><octave>5</octave></pitch><duration>4</duration><voice>1</voice><type>quarter</type><stem>up</stem></note><note><pitch><step>G</step><alter>1</alter><octave>5</octave></pitch><duration>4</duration><voice>1</voice><type>quarter</type><stem>up</stem><accidental>sharp</accidental></note><note><pitch><step>B</step><alter>-1</alter><octave>4</octave></pitch><duration>8</duration><voice>1</voice><type>half</type><stem>up</stem><accidental>flat</accidental></note></measure><measure number="46"><direction placement="above"><direction-type><words>Eb(add4)</words></direction-type></direction><note><pitch><step>F</step><octave>4</octave></pitch><duration>8</duration><voice>1</voice><type>half</type><stem>up</stem></note><note><pitch><step>E</step><alter>-1</alter><octave>4</octave></pitch><duration>8</duration><voice>1</voice><type>half</type><stem>up</stem><accidental>flat</accidental></note></measure><measure number="47"><direction placement="above"><direction-type><words>Bm(add9)</words></direction-type></direction><note><pitch><step>B</step><octave>4</octave></pitch><duration>16</duration><voice>1</voice><type>whole</type><stem>up</stem></note></measure><measure number="48"><direction placement="above"><direction-type><words>Bm(add9)/C</words></direction-type></direction><note><pitch><step>A</step><octave>4</octave></pitch><duration>8</duration><voice>1</voice><type>half</type><stem>up</stem></note><note><pitch><step>F</step><alter>1</alter><octave>4</octave></pitch><duration>8</duration><voice>1</voice><type>half</type><stem>up</stem><accidental>sharp</accidental></note></measure><measure number="49"><direction placement="above"><direction-type><words>Bm(add9)</words></direction-type></direction><note><pitch><step>E</step><octave>4</octave></pitch><duration>16</duration><voice>1</voice><type>whole</type><stem>up</stem></note></measure><measure number="50"><direction placement="above"><direction-type><words>Bm(add9)/A</words></direction-type></direction><note><pitch><step>A</step><octave>4</octave></pitch><duration>8</duration><voice>1</voice><type>half</type><stem>up</stem></note><note><pitch><step>B</step><octave>4</octave></pitch><duration>8</duration><voice>1</voice><type>half</type><stem>up</stem></note></measure><measure number="51"><direction placement="above"><direction-type><words>Bm(add9)</words></direction-type></direction><note><pitch><step>C</step><alter>1</alter><octave>5</octave></pitch><duration>16</duration><voice>1</voice><type>whole</type><stem>up</stem><accidental>sharp</accidental></note></measure><measure number="52"><direction placement="above"><direction-type><words>Bm(add9)/F#</words></direction-type></direction><note><pitch><step>B</step><octave>4</octave></pitch><duration>8</duration><voice>1</voice><type>half</type><stem>up</stem></note><note><pitch><step>A</step><octave>4</octave></pitch><duration>8</duration><voice>1</voice><type>half</type><stem>up</stem></note></measure><measure number="53"><direction placement="above"><direction-type><words>Bm(add9)</words></direction-type></direction><note><pitch><step>F</step><alter>1</alter><octave>4</octave></pitch><duration>16</duration><voice>1</voice><type>whole</type><stem>up</stem><accidental>sharp</accidental></note></measure><measure number="54"><direction placement="above"><direction-type><words>Bm(add9)/C</words></direction-type></direction><note><pitch><step>A</step><octave>4</octave></pitch><duration>8</duration><voice>1</voice><type>half</type><stem>up</stem></note><note><pitch><step>G</step><octave>4</octave></pitch><duration>8</duration><voice>1</voice><type>half</type><stem>up</stem></note></measure><measure number="55"><direction placement="above"><direction-type><words>Bm(add9)</words></direction-type></direction><note><pitch><step>E</step><octave>4</octave></pitch><duration>16</duration><voice>1</voice><type>whole</type><stem>up</stem></note></measure><measure number="56"><direction placement="above"><direction-type><words>Bm(add9)/A</words></direction-type></direction><note><pitch><step>F</step><alter>1</alter><octave>4</octave></pitch><duration>4</duration><voice>1</voice><type>quarter</type><stem>up</stem><accidental>sharp</accidental></note><note><pitch><step>A</step><octave>4</octave></pitch><duration>4</duration><voice>1</voice><type>quarter</type><stem>up</stem></note><note><pitch><step>B</step><octave>4</octave></pitch><duration>8</duration><voice>1</voice><type>half</type><stem>up</stem></note></measure><measure number="57"><direction placement="above"><direction-type><words>Bm(add9)</words></direction-type></direction><note><pitch><step>B</step><octave>4</octave></pitch><duration>16</duration><voice>1</voice><type>whole</type><stem>up</stem></note></measure><measure number="58"><direction placement="above"><direction-type><words>Bm(add9)/C</words></direction-type></direction><note><pitch><step>A</step><octave>4</octave></pitch><duration>8</duration><voice>1</voice><type>half</type><stem>up</stem></note><note><pitch><step>F</step><alter>1</alter><octave>4</octave></pitch><duration>4</duration><voice>1</voice><type>quarter</type><stem>up</stem><accidental>sharp</accidental></note><note><pitch><step>E</step><octave>4</octave></pitch><duration>4</duration><voice>1</voice><type>quarter</type><stem>up</stem></note></measure><measure number="59"><direction placement="above"><direction-type><words>Bm(add9)</words></direction-type></direction><note><pitch><step>D</step><octave>4</octave></pitch><duration>16</duration><voice>1</voice><type>whole</type><stem>up</stem></note></measure><measure number="60"><direction placement="above"><direction-type><words>Bm(add9)/F#</words></direction-type></direction><note><pitch><step>E</step><octave>4</octave></pitch><duration>8</duration><voice>1</voice><type>half</type><stem>up</stem></note><note><pitch><step>F</step><alter>1</alter><octave>4</octave></pitch><duration>8</duration><voice>1</voice><type>half</type><stem>up</stem><accidental>sharp</accidental></note></measure><measure number="61"><direction placement="above"><direction-type><words>Bm(add9)</words></direction-type></direction><note><pitch><step>A</step><octave>4</octave></pitch><duration>16</duration><voice>1</voice><type>whole</type><stem>up</stem></note></measure><measure number="62"><direction placement="above"><direction-type><words>Bm(add9)/C</words></direction-type></direction><note><pitch><step>B</step><octave>4</octave></pitch><duration>8</duration><voice>1</voice><type>half</type><stem>up</stem></note><note><pitch><step>A</step><octave>4</octave></pitch><duration>4</duration><voice>1</voice><type>quarter</type><stem>up</stem></note><note><pitch><step>F</step><alter>1</alter><octave>4</octave></pitch><duration>4</duration><voice>1</voice><type>quarter</type><stem>up</stem><accidental>sharp</accidental></note></measure><measure number="63"><direction placement="above"><direction-type><words>Bm(add9)</words></direction-type></direction><note><pitch><step>B</step><octave>4</octave></pitch><duration>16</duration><voice>1</voice><type>whole</type><stem>up</stem></note></measure><measure number="64"><direction placement="above"><direction-type><words>Bm(add9)</words></direction-type></direction><note><pitch><step>A</step><octave>4</octave></pitch><duration>16</duration><voice>1</voice><type>whole</type><stem>up</stem></note></measure></part></score-partwise>